<svg width="52" height="52" xmlns="http://www.w3.org/2000/svg"><g fill="none" fill-rule="evenodd"><path stroke="#666" stroke-width="4" d="M2 2h16v16H2z"/><path fill="#666" d="M7 7h6v6H7z"/><path stroke="#666" stroke-width="4" d="M34 2h16v16H34z"/><path fill="#666" d="M39 7h6v6h-6z"/><path stroke="#666" stroke-width="4" d="M2 34h16v16H2z"/><path fill="#666" d="M7 39h6v6H7zM0 24h8v4H0zm12 0h8v4h-8zm4 4h4v4h-4zm8-12h4v4h-4zm0-8h4v4h-4zm0-8h4v4h-4zm-4 20h8v8h-8zM4 28h8v4H4z"/><path fill="#FFF" d="M52 0v52H0z"/></g></svg>