<svg width="105" height="43" xmlns="http://www.w3.org/2000/svg" xmlns:xlink="http://www.w3.org/1999/xlink"><defs><filter x="-9.7%" y="-29.5%" width="119.3%" height="177.3%" filterUnits="objectBoundingBox" id="a"><feOffset dy="2" in="SourceAlpha" result="shadowOffsetOuter1"/><feGaussianBlur stdDeviation="2.5" in="shadowOffsetOuter1" result="shadowBlurOuter1"/><feComposite in="shadowBlurOuter1" in2="SourceAlpha" operator="out" result="shadowBlurOuter1"/><feColorMatrix values="0 0 0 0 0 0 0 0 0 0 0 0 0 0 0 0 0 0 0.05 0" in="shadowBlurOuter1"/></filter><path d="M89.002 13.596c.434.504 1.398 1.054 2.893 1.649a.8.8 0 01-.005 1.489c-1.492.58-2.455 1.13-2.888 1.646V25a2 2 0 01-2 2h-80a2 2 0 01-2-2V7a2 2 0 012-2h80a2 2 0 012 2v6.596z" id="b"/></defs><g fill="none" fill-rule="evenodd"><g transform="matrix(-1 0 0 1 98.002 0)"><use fill="#000" filter="url(#a)" xlink:href="#b"/><use fill="#FFF" xlink:href="#b"/><path stroke-opacity=".2" stroke="#B5B5B5" d="M88.623 13.922l-.121-.14V7a1.5 1.5 0 00-1.5-1.5h-80a1.5 1.5 0 00-1.5 1.5v18a1.5 1.5 0 001.5 1.5h80a1.5 1.5 0 001.5-1.5v-6.802l.117-.139c.502-.599 1.525-1.182 3.09-1.791a.3.3 0 00.001-.558c-1.565-.623-2.586-1.205-3.087-1.788z"/></g><text font-family="PingFangSC-Regular, PingFang SC" font-size="12" fill="#B5B5B5"><tspan x="16" y="20">微信快速登录</tspan></text></g></svg>